# xmcd
#
# Track frame offsets:
#	150
#	16277
#	29427
#	39445
#	51000
#	66072
#	81125
#	99540
#	113990
#	129695
#	144452
#	156365
#	167985
#	180822
#	195417
#	211430
#	225750
#	240612
#	247425
#	262862
#
# Disc length: 3646 seconds
#
# Revision: 1
# Processed by: cddbd v1.5.2PL0 Copyright (c) Steve Scherf et al.
# Submitted via: EZCDAudioConverter 8.0.2.1
#
DISCID=0b0e3c14
DTITLE=TIBAGI and MILTINHO - RAIZES SERTANEJAS [CD 497153-2) EMI COPACABANA
DYEAR=1998
DGENRE=Sertaneja
TTITLE0=POMBINHA BRANCA (VOLA COLOMBA) (BY GILMAR SINISTRO)
TTITLE1=SONHO DE AMOR (BY GILMAR SINISTRO)
TTITLE2=ORGULHO (BY GILMAR SINISTRO)
TTITLE3=TEU ADEUS (BY GILMAR SINISTRO)
TTITLE4=NOITE TRISTE (BY GILMAR SINISTRO)
TTITLE5=UMA LÁGRIMA (UNA LACRIMA) (BY GILMAR SINISTRO)
TTITLE6=TEU CASAMENTO (TU BODA) (BY GILMAR SINISTRO)
TTITLE7=A SAUDADE É MEU CASTIGO (BY GILMAR SINISTRO)
TTITLE8=MINHA VENTURA DISTANTE (MIDICHA LEJANIA) (BY GILMAR SINISTRO)
TTITLE9=CANARINHO DO PEITO AMARELO (GORRIONCILLA PECHA AMARILLO) (BY GILMAR SI
TTITLE9=NISTRO)
TTITLE10=VALE DO RIO VERMELHO (RED RIVER VALLEY) (BY GILMAR SINISTRO)
TTITLE11=APITO DO TREM (BY GILMAR SINISTRO)
TTITLE12=PÉ DE CEDRO (BY GILMAR SINISTRO)
TTITLE13=SE VOCÊ SENTIR SAUDADE (BY GILMAR SINISTRO)
TTITLE14=A VIDA PASSA, TUDO SE ACABA (WE SAID GOODBYE) (BY GILMAR SINISTRO)
TTITLE15=O PRATO DO DIA (BY GILMAR SINISTRO)
TTITLE16=TAÇA VAZIA (BY GILMAR SINISTRO)
TTITLE17=UM POUQUINHO DE AMOR (BY GILMAR SINISTRO)
TTITLE18=PRANTO AMARGO (BY GILMAR SINISTRO)
TTITLE19=QUERO BEIJAR-TE AS MÃOS (BY GILMAR SINISTRO)
EXTD=
EXTT0=
EXTT1=
EXTT2=
EXTT3=
EXTT4=
EXTT5=
EXTT6=
EXTT7=
EXTT8=
EXTT9=
EXTT10=
EXTT11=
EXTT12=
EXTT13=
EXTT14=
EXTT15=
EXTT16=
EXTT17=
EXTT18=
EXTT19=
PLAYORDER=
